<svg width="1541" height="900" viewBox="0 0 1541 900" fill="none" xmlns="http://www.w3.org/2000/svg">
<rect x="853" y="221" width="127" height="389" stroke="#FF5B00" stroke-width="4" stroke-dasharray="10 10"/>
<rect x="998" y="278" width="22" height="281" fill="#D9DAD7" stroke="black" stroke-width="4"/>
<rect x="980" y="193" width="18" height="443" fill="#D9DAD7" stroke="black" stroke-width="4"/>
<path d="M1533 415L1513 403.453L1513 426.547L1533 415ZM1365 417L1515 417L1515 413L1365 413L1365 417Z" fill="black"/>
<path d="M1022 415H1365" stroke="black" stroke-width="4" stroke-dasharray="8 8"/>
<path fill-rule="evenodd" clip-rule="evenodd" d="M1266 415C1266 549.757 1156.76 659 1022 659C1018.99 659 1015.99 658.945 1013 658.837L1013 663.84C1015.99 663.946 1018.99 664 1022 664C1159.52 664 1271 552.519 1271 415C1271 414.667 1271 414.333 1271 414L1266 414C1266 414.333 1266 414.667 1266 415Z" fill="black"/>
<line x1="1009" y1="414" x2="1009" y2="875" stroke="black" stroke-width="4" stroke-dasharray="12 12"/>
<path d="M782.176 166.642C784.134 166.642 786.115 167.009 788.12 167.743C790.124 168.462 791.241 168.822 791.47 168.822C792.067 168.822 792.541 168.592 792.893 168.133C793.26 167.674 793.49 167.192 793.582 166.688H794.89V177.68H793.696C792.564 175.293 791.409 173.412 790.231 172.035C788.028 169.495 785.534 168.225 782.75 168.225C779.598 168.225 777.356 169.587 776.025 172.31C774.71 175.018 774.052 178.659 774.052 183.234C774.052 186.6 774.442 189.369 775.222 191.542C776.676 195.611 779.376 197.646 783.323 197.646C785.741 197.646 787.99 196.973 790.07 195.626C791.264 194.846 792.671 193.599 794.293 191.886L795.693 193.033C793.857 195.083 792.243 196.567 790.851 197.485C788.372 199.122 785.618 199.941 782.589 199.941C777.953 199.941 774.067 198.564 770.931 195.81C767.458 192.765 765.721 188.665 765.721 183.509C765.721 178.399 767.381 174.261 770.701 171.094C773.822 168.126 777.647 166.642 782.176 166.642ZM814.488 167.238V168.432C812.805 168.523 811.711 168.669 811.207 168.868C810.717 169.051 810.472 169.526 810.472 170.291C810.472 170.535 810.487 170.765 810.518 170.979C810.564 171.178 810.64 171.4 810.748 171.645L817.862 188.994H818.137L824.288 173.113C824.425 172.761 824.548 172.402 824.655 172.035C824.838 171.438 824.93 170.956 824.93 170.589C824.93 169.701 824.662 169.151 824.127 168.937C823.607 168.707 822.536 168.539 820.914 168.432V167.238H830.92V168.386C829.772 168.508 828.908 168.845 828.327 169.396C827.761 169.931 827.21 170.88 826.674 172.241L815.957 199.872H814.718L802.624 171.713C802.134 170.581 801.629 169.77 801.109 169.281C800.604 168.776 799.808 168.478 798.722 168.386V167.238H814.488Z" fill="#FF5B00"/>
<path d="M1365 579L1376.55 559L1353.45 559L1365 579ZM1363 413L1363 561L1367 561L1367 413L1363 413Z" fill="black"/>
<path d="M1503.69 380.439C1503.69 379.843 1503.88 379.422 1504.24 379.177C1504.61 378.917 1504.98 378.787 1505.37 378.787C1505.55 378.787 1505.73 378.818 1505.92 378.879C1506.1 378.925 1506.3 379.009 1506.51 379.131L1507.32 379.567C1507.42 379.629 1507.52 379.674 1507.62 379.705C1507.72 379.72 1507.84 379.728 1507.96 379.728C1508.34 379.728 1508.63 379.636 1508.83 379.453C1509.05 379.254 1509.58 378.581 1510.44 377.433C1511.01 376.683 1512.29 374.855 1514.29 371.948C1514.29 371.841 1514.12 371.023 1513.77 369.493C1513.41 367.947 1513.09 366.639 1512.8 365.568C1512.51 364.482 1512.25 363.771 1512.02 363.434C1511.79 363.082 1511.36 362.906 1510.74 362.906C1510.52 362.906 1510.1 362.983 1509.48 363.136C1509.08 363.228 1508.65 363.335 1508.19 363.457L1507.98 362.746L1510.53 361.874C1511.19 361.644 1511.79 361.46 1512.34 361.323C1512.91 361.185 1513.39 361.116 1513.79 361.116C1514.43 361.116 1514.91 361.307 1515.24 361.69C1515.72 362.302 1516.14 363.511 1516.47 365.316L1516.96 367.932C1518.33 365.821 1519.4 364.337 1520.17 363.48C1520.86 362.7 1521.51 362.118 1522.12 361.736C1522.73 361.353 1523.31 361.162 1523.86 361.162C1524.38 361.162 1524.81 361.239 1525.13 361.392C1525.71 361.667 1526 362.187 1526 362.952C1526 363.472 1525.85 363.878 1525.56 364.168C1525.27 364.459 1524.9 364.604 1524.44 364.604C1524.27 364.604 1524.11 364.589 1523.96 364.559C1523.8 364.513 1523.64 364.451 1523.47 364.375L1522.88 364.123C1522.71 364.046 1522.55 363.985 1522.4 363.939C1522.24 363.878 1522.13 363.847 1522.05 363.847C1521.36 363.847 1520.41 364.742 1519.18 366.532C1517.96 368.307 1517.35 369.332 1517.35 369.607C1517.35 369.837 1517.48 370.587 1517.76 371.856C1518.05 373.111 1518.36 374.442 1518.7 375.85C1519.01 377.181 1519.27 378.099 1519.48 378.604C1519.83 379.43 1520.23 379.843 1520.67 379.843C1521.09 379.843 1521.51 379.613 1521.94 379.154C1522.36 378.695 1523.01 377.869 1523.86 376.676L1524.51 377.066C1523.85 378.259 1523.17 379.277 1522.46 380.118C1521.13 381.709 1519.86 382.505 1518.65 382.505C1517.89 382.505 1517.29 382.138 1516.84 381.403C1516.58 380.975 1516.33 380.271 1516.08 379.292L1514.66 373.624L1509.96 379.797C1509.04 380.868 1508.33 381.587 1507.82 381.954C1507.33 382.321 1506.72 382.505 1505.99 382.505C1505.01 382.505 1504.34 382.199 1503.99 381.587C1503.79 381.266 1503.69 380.883 1503.69 380.439Z" fill="black"/>
<path d="M1300.78 574.619C1300.78 574.13 1300.94 573.709 1301.24 573.357C1301.55 573.005 1301.99 572.829 1302.57 572.829C1302.96 572.829 1303.29 572.898 1303.58 573.036C1303.87 573.189 1304.18 573.403 1304.5 573.678L1304.82 573.908C1304.91 573.984 1305.01 574.038 1305.12 574.068C1305.24 574.114 1305.37 574.137 1305.51 574.137C1306.26 574.137 1307.46 573.143 1309.11 571.154C1310.78 569.18 1311.62 567.742 1311.62 566.839C1311.62 565.983 1311.33 564.3 1310.74 561.791C1310.18 559.281 1309.63 557.048 1309.09 555.089C1308.34 552.335 1307.65 550.469 1307.03 549.49C1306.41 548.511 1305.5 548.021 1304.29 548.021C1304.2 548.021 1304.04 548.036 1303.81 548.067C1303.6 548.082 1303.22 548.12 1302.69 548.182V547.424L1308.95 546.231L1309.44 546.185C1309.82 546.139 1310.55 547.86 1311.64 551.349C1312.62 554.485 1313.23 556.765 1313.47 558.188L1314.39 563.649C1316 560.957 1317.18 558.891 1317.93 557.453C1319.4 554.623 1320.13 552.641 1320.13 551.509C1320.13 551.249 1320.08 550.997 1319.99 550.752C1319.9 550.492 1319.69 550.27 1319.35 550.086L1318.96 549.88C1318.71 549.757 1318.42 549.528 1318.09 549.191C1317.77 548.855 1317.61 548.403 1317.61 547.837C1317.61 547.363 1317.76 546.965 1318.06 546.644C1318.37 546.323 1318.83 546.162 1319.44 546.162C1320.21 546.162 1320.83 546.392 1321.3 546.851C1321.77 547.294 1322.01 548.059 1322.01 549.146C1322.01 550.783 1321.12 553.414 1319.33 557.04C1317.95 559.809 1316.41 562.494 1314.71 565.095C1312.59 568.339 1310.76 570.84 1309.23 572.6C1306.8 575.369 1304.78 576.753 1303.17 576.753C1302.54 576.753 1301.99 576.562 1301.52 576.18C1301.03 575.797 1300.78 575.277 1300.78 574.619Z" fill="black"/>
<path d="M1119 376.243C1120.1 376.151 1120.86 375.952 1121.27 375.646C1121.91 375.187 1122.44 374.231 1122.86 372.777L1128.62 351.985C1128.75 351.48 1128.86 351.044 1128.94 350.677C1129.09 350.019 1129.17 349.522 1129.17 349.186C1129.17 348.375 1128.89 347.832 1128.34 347.556C1127.79 347.281 1126.85 347.128 1125.52 347.097V346.34H1148.9L1147.43 353.5L1146.47 353.408C1146.52 352.903 1146.54 352.521 1146.54 352.261C1146.55 351.894 1146.56 351.611 1146.56 351.412C1146.56 349.989 1146.01 349.04 1144.91 348.566C1143.81 348.092 1141.51 347.854 1138.02 347.854C1136.54 347.854 1135.55 347.923 1135.06 348.061C1134.57 348.199 1134.25 348.543 1134.1 349.094L1131 360.041C1135.03 359.918 1137.46 359.673 1138.3 359.306C1139.16 358.939 1140.12 357.73 1141.19 355.68L1142 355.91L1138.46 366.902L1137.66 366.673C1137.83 365.77 1137.93 365.166 1137.98 364.86C1138.02 364.554 1138.05 364.263 1138.05 363.988C1138.05 362.917 1137.6 362.228 1136.69 361.922C1136.13 361.723 1134.98 361.624 1133.25 361.624H1130.57L1127.7 372.066C1127.47 372.877 1127.33 373.374 1127.28 373.558C1127.25 373.726 1127.24 373.932 1127.24 374.177C1127.24 375.003 1127.58 375.562 1128.27 375.853C1128.72 376.036 1129.57 376.166 1130.84 376.243V377H1119V376.243Z" fill="black"/>
<path d="M1147.45 392L1152.61 372.455C1152.63 372.358 1152.65 372.267 1152.66 372.181C1152.68 372.084 1152.69 371.987 1152.69 371.891C1152.69 371.418 1152.55 371.133 1152.27 371.037C1152 370.94 1151.42 370.902 1150.51 370.924V370.392C1151.12 370.317 1151.72 370.242 1152.29 370.167C1152.85 370.081 1153.29 370.011 1153.61 369.957C1153.7 369.936 1154.07 369.855 1154.72 369.715C1155.36 369.576 1155.72 369.506 1155.78 369.506L1155.81 369.667L1151.77 384.781C1154.2 382.869 1155.84 381.532 1156.7 380.769C1157.56 380.006 1157.99 379.432 1157.99 379.045C1157.99 378.787 1157.87 378.626 1157.63 378.562C1157.41 378.497 1156.92 378.449 1156.15 378.417V377.869H1162.19V378.417C1161.4 378.459 1160.66 378.717 1159.99 379.19C1159.31 379.663 1157.58 381.097 1154.78 383.492C1156.24 386.897 1157.16 388.949 1157.52 389.647C1157.89 390.335 1158.26 390.679 1158.63 390.679C1158.96 390.679 1159.29 390.453 1159.65 390.002C1159.89 389.712 1160.22 389.186 1160.66 388.423L1161.16 388.761C1160.48 390.018 1159.86 390.937 1159.33 391.517C1158.8 392.097 1158.19 392.387 1157.49 392.387C1157.04 392.387 1156.63 392.215 1156.27 391.871C1155.9 391.517 1155.41 390.7 1154.8 389.422C1154.55 388.928 1154.26 388.305 1153.93 387.553C1153.61 386.801 1153.27 385.958 1152.91 385.023L1151.42 386.119L1149.93 392H1147.45ZM1160.74 390.904C1160.74 390.485 1160.87 390.19 1161.13 390.018C1161.39 389.835 1161.65 389.744 1161.92 389.744C1162.05 389.744 1162.18 389.766 1162.31 389.809C1162.44 389.841 1162.58 389.9 1162.73 389.986L1163.29 390.292C1163.37 390.335 1163.44 390.367 1163.5 390.389C1163.58 390.399 1163.66 390.405 1163.74 390.405C1164.01 390.405 1164.21 390.34 1164.35 390.211C1164.5 390.072 1164.88 389.599 1165.48 388.793C1165.88 388.267 1166.78 386.983 1168.19 384.942C1168.19 384.867 1168.07 384.292 1167.82 383.218C1167.57 382.133 1167.35 381.215 1167.14 380.463C1166.94 379.7 1166.75 379.201 1166.59 378.964C1166.43 378.717 1166.13 378.594 1165.69 378.594C1165.54 378.594 1165.25 378.647 1164.81 378.755C1164.53 378.819 1164.23 378.895 1163.9 378.98L1163.76 378.481L1165.55 377.869C1166.01 377.708 1166.43 377.579 1166.82 377.482C1167.22 377.385 1167.56 377.337 1167.83 377.337C1168.29 377.337 1168.62 377.471 1168.85 377.74C1169.19 378.169 1169.48 379.018 1169.72 380.286L1170.06 382.123C1171.02 380.64 1171.78 379.598 1172.31 378.997C1172.8 378.449 1173.25 378.041 1173.68 377.772C1174.11 377.503 1174.52 377.369 1174.91 377.369C1175.27 377.369 1175.57 377.423 1175.79 377.53C1176.2 377.724 1176.41 378.089 1176.41 378.626C1176.41 378.991 1176.3 379.276 1176.1 379.48C1175.9 379.684 1175.63 379.786 1175.31 379.786C1175.19 379.786 1175.08 379.775 1174.97 379.754C1174.87 379.722 1174.75 379.679 1174.63 379.625L1174.22 379.448C1174.1 379.394 1173.98 379.351 1173.88 379.319C1173.77 379.276 1173.69 379.254 1173.64 379.254C1173.15 379.254 1172.48 379.883 1171.62 381.14C1170.76 382.386 1170.33 383.105 1170.33 383.299C1170.33 383.46 1170.43 383.986 1170.62 384.878C1170.83 385.759 1171.05 386.693 1171.28 387.682C1171.5 388.616 1171.68 389.261 1171.83 389.615C1172.08 390.195 1172.36 390.485 1172.67 390.485C1172.96 390.485 1173.25 390.324 1173.55 390.002C1173.86 389.68 1174.31 389.1 1174.91 388.262L1175.36 388.536C1174.9 389.374 1174.42 390.088 1173.93 390.679C1172.99 391.796 1172.1 392.354 1171.25 392.354C1170.71 392.354 1170.29 392.097 1169.98 391.581C1169.79 391.28 1169.62 390.786 1169.45 390.099L1168.45 386.119L1165.14 390.453C1164.5 391.205 1164 391.71 1163.65 391.968C1163.3 392.226 1162.87 392.354 1162.36 392.354C1161.67 392.354 1161.2 392.14 1160.95 391.71C1160.81 391.484 1160.74 391.216 1160.74 390.904Z" fill="black"/>
<circle cx="1009.5" cy="414.5" r="10.5" transform="rotate(-45 1009.5 414.5)" fill="white" stroke="black" stroke-width="2"/>
<line x1="1002.08" y1="407.075" x2="1017.63" y2="422.632" stroke="black"/>
<line x1="1016.92" y1="407.075" x2="1001.37" y2="422.632" stroke="black"/>
<rect x="1009" y="414" width="1" height="1" fill="#C4C4C4"/>
<line x1="970.5" y1="415" x2="970.5" y2="77" stroke="black"/>
<line x1="970.5" y1="753" x2="970.5" y2="415" stroke="black"/>
<line x1="959" y1="414.5" x2="340" y2="414.5" stroke="black"/>
<rect x="1.5" y="360.5" width="253" height="108" fill="#379FF4" stroke="black" stroke-width="3"/>
<path d="M257.5 361.009L363.5 392.411V435.59L257.5 467.973V361.009Z" fill="#C4C4C4" stroke="black" stroke-width="3"/>
<rect x="99.5" y="279.5" width="57" height="81" fill="#C4C4C4" stroke="black" stroke-width="3"/>
<rect x="1.5" y="1.5" width="244" height="279" rx="53.5" fill="#ACDDF6" stroke="black" stroke-width="3"/>
<path d="M83.0684 250.139C83.7246 250.057 84.1758 249.916 84.4219 249.717C84.8203 249.4 85.0195 248.814 85.0195 247.959V237.377C85.0195 236.627 84.8848 236.117 84.6152 235.848C84.3457 235.578 83.8301 235.396 83.0684 235.303V234.424H89.8887V237.008C90.4863 236.223 91.0664 235.613 91.6289 235.18C92.6719 234.395 93.832 234.002 95.1094 234.002C96.5508 234.002 97.6699 234.342 98.4668 235.021C98.9121 235.408 99.334 236.041 99.7324 236.92H99.9785C100.658 236.088 101.309 235.461 101.93 235.039C102.914 234.348 103.986 234.002 105.146 234.002C106.412 234.002 107.525 234.406 108.486 235.215C109.459 236.023 109.945 237.301 109.945 239.047V248.1C109.945 248.932 110.08 249.465 110.35 249.699C110.619 249.922 111.094 250.068 111.773 250.139V251H103.23V250.139C103.887 250.045 104.344 249.887 104.602 249.664C104.859 249.43 104.988 248.908 104.988 248.1V239.381C104.988 238.443 104.848 237.717 104.566 237.201C104.297 236.686 103.775 236.428 103.002 236.428C102.381 236.428 101.725 236.715 101.033 237.289C100.354 237.852 100.014 238.244 100.014 238.467V248.1C100.014 248.885 100.131 249.389 100.365 249.611C100.6 249.834 101.039 250.01 101.684 250.139V251H93.2637V250.139C93.8965 250.057 94.3477 249.904 94.6172 249.682C94.8867 249.447 95.0215 248.92 95.0215 248.1V239.381C95.0215 238.467 94.8926 237.746 94.6348 237.219C94.377 236.691 93.8438 236.428 93.0352 236.428C92.2969 236.428 91.6113 236.732 90.9785 237.342C90.3457 237.939 90.0293 238.314 90.0293 238.467V248.1C90.0293 248.885 90.1406 249.389 90.3633 249.611C90.5859 249.834 91.0254 250.01 91.6816 250.139V251H83.0684V250.139ZM120.053 247.502C120.1 248.158 120.229 248.697 120.439 249.119C120.861 249.939 121.564 250.35 122.549 250.35C123.779 250.35 124.646 249.699 125.15 248.398C125.666 247.098 125.924 245.258 125.924 242.879C125.924 240.992 125.695 239.369 125.238 238.01C124.793 236.65 123.914 235.971 122.602 235.971C121.828 235.971 121.207 236.258 120.738 236.832C120.281 237.395 120.053 237.799 120.053 238.045V247.502ZM120.053 226.672V236.006C120.615 235.455 121.137 235.039 121.617 234.758C122.496 234.254 123.445 234.002 124.465 234.002C126.492 234.002 128.121 234.793 129.352 236.375C130.594 237.957 131.215 239.902 131.215 242.211C131.215 245.188 130.424 247.484 128.842 249.102C127.271 250.707 125.314 251.51 122.971 251.51C122.01 251.51 121.16 251.322 120.422 250.947C119.684 250.572 118.992 250.08 118.348 249.471L115.518 251.51H115.008V229.625C115.008 228.875 114.873 228.371 114.604 228.113C114.334 227.844 113.83 227.656 113.092 227.551V226.672H120.053ZM140.408 248.943C140.994 248.943 141.539 248.768 142.043 248.416C142.324 248.205 142.658 247.877 143.045 247.432V242.176C142.084 242.41 141.24 242.779 140.514 243.283C139.283 244.139 138.668 245.229 138.668 246.553C138.668 247.338 138.844 247.936 139.195 248.346C139.559 248.744 139.963 248.943 140.408 248.943ZM133.43 247.643C133.43 246.025 134.209 244.742 135.768 243.793C137.326 242.844 139.77 241.889 143.098 240.928V238.309C143.098 237.242 142.869 236.457 142.412 235.953C141.967 235.438 141.17 235.18 140.021 235.18C139.377 235.18 138.844 235.303 138.422 235.549C138.012 235.783 137.807 236.082 137.807 236.445C137.807 236.586 137.83 236.703 137.877 236.797C137.924 236.891 137.994 236.99 138.088 237.096L138.299 237.342C138.463 237.541 138.592 237.764 138.686 238.01C138.791 238.244 138.844 238.496 138.844 238.766C138.844 239.445 138.615 239.973 138.158 240.348C137.713 240.711 137.191 240.893 136.594 240.893C135.902 240.893 135.311 240.688 134.818 240.277C134.338 239.867 134.098 239.275 134.098 238.502C134.098 237.119 134.748 236.023 136.049 235.215C137.35 234.406 138.949 234.002 140.848 234.002C142.887 234.002 144.592 234.395 145.963 235.18C147.322 235.977 148.002 237.441 148.002 239.574V248.293C148.002 248.551 148.066 248.773 148.195 248.961C148.336 249.137 148.488 249.225 148.652 249.225C148.793 249.225 148.916 249.201 149.021 249.154C149.139 249.096 149.314 248.949 149.549 248.715L150.094 249.471C149.391 250.291 148.611 250.865 147.756 251.193C147.217 251.404 146.648 251.51 146.051 251.51C144.984 251.51 144.205 251.199 143.713 250.578C143.432 250.227 143.227 249.705 143.098 249.014C142.102 250.01 140.977 250.713 139.723 251.123C138.961 251.381 138.211 251.51 137.473 251.51C136.488 251.51 135.568 251.199 134.713 250.578C133.857 249.945 133.43 248.967 133.43 247.643ZM151.166 250.139C151.857 250.057 152.338 249.893 152.607 249.646C152.877 249.4 153.023 248.926 153.047 248.223L153.082 247.168V237.377C153.082 236.627 152.953 236.117 152.695 235.848C152.438 235.578 151.928 235.396 151.166 235.303V234.424H158.004V237.254C158.766 236.258 159.521 235.467 160.271 234.881C161.021 234.295 161.889 234.002 162.873 234.002C163.611 234.002 164.273 234.242 164.859 234.723C165.457 235.191 165.756 235.883 165.756 236.797C165.756 237.5 165.545 238.08 165.123 238.537C164.713 238.994 164.174 239.223 163.506 239.223C162.744 239.223 162.082 238.865 161.52 238.15C160.969 237.436 160.582 237.078 160.359 237.078C159.879 237.078 159.393 237.377 158.9 237.975C158.42 238.561 158.18 239.404 158.18 240.506V247.309C158.18 248.504 158.35 249.254 158.689 249.559C159.041 249.852 159.732 250.045 160.764 250.139V251H151.166V250.139Z" fill="black"/>
<circle cx="124" cy="122" r="88" fill="#F9F9F9" stroke="black" stroke-width="6"/>
<path d="M81.1357 103.327C85.1901 103.327 88.2806 105.033 90.4072 108.445C92.5339 111.841 93.5972 116.424 93.5972 122.191C93.5972 127.975 92.5339 132.572 90.4072 135.984C88.2806 139.38 85.1901 141.079 81.1357 141.079C77.0967 141.079 74.0062 139.38 71.8643 135.984C69.7376 132.572 68.6743 127.975 68.6743 122.191C68.6743 116.424 69.7376 111.841 71.8643 108.445C74.0062 105.033 77.0967 103.327 81.1357 103.327ZM74.1821 129.811L86.5059 110.51C85.7256 109.087 84.8765 108.131 83.9585 107.642C83.0558 107.137 82.1149 106.884 81.1357 106.884C78.5807 106.884 76.6377 108.307 75.3066 111.153C73.9756 113.983 73.3101 117.579 73.3101 121.939C73.3101 122.933 73.3407 124.004 73.4019 125.152C73.4631 126.299 73.7231 127.852 74.1821 129.811ZM88.0435 114.756L75.8115 134.171C76.4694 135.288 77.2267 136.129 78.0835 136.695C78.9403 137.246 79.8965 137.521 80.9521 137.521C83.859 137.521 85.9245 135.9 87.1484 132.656C88.3724 129.397 88.9844 125.787 88.9844 121.824C88.9844 119.376 88.6707 117.02 88.0435 114.756ZM109.363 103.327C113.418 103.327 116.508 105.033 118.635 108.445C120.761 111.841 121.825 116.424 121.825 122.191C121.825 127.975 120.761 132.572 118.635 135.984C116.508 139.38 113.418 141.079 109.363 141.079C105.324 141.079 102.234 139.38 100.092 135.984C97.9652 132.572 96.9019 127.975 96.9019 122.191C96.9019 116.424 97.9652 111.841 100.092 108.445C102.234 105.033 105.324 103.327 109.363 103.327ZM102.41 129.811L114.733 110.51C113.953 109.087 113.104 108.131 112.186 107.642C111.283 107.137 110.342 106.884 109.363 106.884C106.808 106.884 104.865 108.307 103.534 111.153C102.203 113.983 101.538 117.579 101.538 121.939C101.538 122.933 101.568 124.004 101.629 125.152C101.691 126.299 101.951 127.852 102.41 129.811ZM116.271 114.756L104.039 134.171C104.697 135.288 105.454 136.129 106.311 136.695C107.168 137.246 108.124 137.521 109.18 137.521C112.087 137.521 114.152 135.9 115.376 132.656C116.6 129.397 117.212 125.787 117.212 121.824C117.212 119.376 116.898 117.02 116.271 114.756ZM137.591 103.327C141.645 103.327 144.736 105.033 146.862 108.445C148.989 111.841 150.052 116.424 150.052 122.191C150.052 127.975 148.989 132.572 146.862 135.984C144.736 139.38 141.645 141.079 137.591 141.079C133.552 141.079 130.461 139.38 128.319 135.984C126.193 132.572 125.129 127.975 125.129 122.191C125.129 116.424 126.193 111.841 128.319 108.445C130.461 105.033 133.552 103.327 137.591 103.327ZM130.637 129.811L142.961 110.51C142.181 109.087 141.332 108.131 140.414 107.642C139.511 107.137 138.57 106.884 137.591 106.884C135.036 106.884 133.093 108.307 131.762 111.153C130.431 113.983 129.765 117.579 129.765 121.939C129.765 122.933 129.796 124.004 129.857 125.152C129.918 126.299 130.178 127.852 130.637 129.811ZM144.499 114.756L132.267 134.171C132.924 135.288 133.682 136.129 134.539 136.695C135.395 137.246 136.352 137.521 137.407 137.521C140.314 137.521 142.38 135.9 143.604 132.656C144.827 129.397 145.439 125.787 145.439 121.824C145.439 119.376 145.126 117.02 144.499 114.756ZM165.818 103.327C169.873 103.327 172.963 105.033 175.09 108.445C177.216 111.841 178.28 116.424 178.28 122.191C178.28 127.975 177.216 132.572 175.09 135.984C172.963 139.38 169.873 141.079 165.818 141.079C161.779 141.079 158.689 139.38 156.547 135.984C154.42 132.572 153.357 127.975 153.357 122.191C153.357 116.424 154.42 111.841 156.547 108.445C158.689 105.033 161.779 103.327 165.818 103.327ZM158.865 129.811L171.188 110.51C170.408 109.087 169.559 108.131 168.641 107.642C167.738 107.137 166.798 106.884 165.818 106.884C163.263 106.884 161.32 108.307 159.989 111.153C158.658 113.983 157.993 117.579 157.993 121.939C157.993 122.933 158.023 124.004 158.084 125.152C158.146 126.299 158.406 127.852 158.865 129.811ZM172.726 114.756L160.494 134.171C161.152 135.288 161.909 136.129 162.766 136.695C163.623 137.246 164.579 137.521 165.635 137.521C168.542 137.521 170.607 135.9 171.831 132.656C173.055 129.397 173.667 125.787 173.667 121.824C173.667 119.376 173.353 117.02 172.726 114.756Z" fill="black"/>
</svg>
